<svg xmlns="http://www.w3.org/2000/svg" xmlns:xlink="http://www.w3.org/1999/xlink" width="602" height="428" viewBox="0 0 3001 2104">
  <defs>
    <linearGradient id="linear-gradient" x1="0.216" y1="0.084" x2="1.158" y2="1.854" gradientUnits="objectBoundingBox">
      <stop offset="0" stop-color="#924bf9"/>
      <stop offset="1" stop-color="#15c7e5"/>
    </linearGradient>
    <clipPath id="clip-Artboard_1">
      <rect width="3001" height="2104"/>
    </clipPath>
  </defs>
  <g id="Artboard_1" data-name="Artboard – 1" clip-path="url(#clip-Artboard_1)">
    <g id="Group_38" data-name="Group 38" transform="translate(-19017 -20072)">
      <path id="Union_25" data-name="Union 25" d="M441.565,1107.5a141.812,141.812,0,0,1-33.207-3.947,122.956,122.956,0,0,1-55.669-30.538,119.182,119.182,0,0,1-19.445-24.564,113.947,113.947,0,0,1-12.346-29.184,126.547,126.547,0,0,1-4.117-32.051q0-.258,0-.515t0-.519a128.067,128.067,0,0,1,4.117-32.328,111.827,111.827,0,0,1,12.346-29.129,120.431,120.431,0,0,1,19.451-24.456,124.915,124.915,0,0,1,25.425-18.815,121.625,121.625,0,0,1,30.219-12,144.781,144.781,0,0,1,67.595,0,119.877,119.877,0,0,1,30.049,12,124.9,124.9,0,0,1,25.257,18.815,121.4,121.4,0,0,1,19.4,24.454,111.778,111.778,0,0,1,12.348,29.129,128.028,128.028,0,0,1,4.118,32.328q0,.26,0,.519t0,.515a126.593,126.593,0,0,1-4.117,32.052,113.946,113.946,0,0,1-12.355,29.185,119.044,119.044,0,0,1-19.45,24.565,121.749,121.749,0,0,1-25.427,18.706,123.126,123.126,0,0,1-30.1,11.831,139.369,139.369,0,0,1-32.909,3.947Zm-52.736-105.027A62.366,62.366,0,0,0,393.9,1016.9a56.359,56.359,0,0,0,8.18,12.174,54.606,54.606,0,0,0,10.993,9.465,48.192,48.192,0,0,0,13.475,6.085,58.2,58.2,0,0,0,15.232,2.03h.791a57.592,57.592,0,0,0,15.157-2.03,46.689,46.689,0,0,0,13.3-6.085,54.651,54.651,0,0,0,10.824-9.465,57.541,57.541,0,0,0,8.123-12.17,62.216,62.216,0,0,0,5.073-14.418,75.524,75.524,0,0,0,1.7-15.97q0-.128,0-.256t0-.25a72.887,72.887,0,0,0-1.7-15.638,62.465,62.465,0,0,0-5.074-14.309,57.5,57.5,0,0,0-8.122-12.17,54.671,54.671,0,0,0-10.823-9.465,46.671,46.671,0,0,0-13.306-6.085,57.547,57.547,0,0,0-15.144-2.029h-.826a58.17,58.17,0,0,0-15.215,2.024,48.165,48.165,0,0,0-13.473,6.083,54.683,54.683,0,0,0-10.993,9.465,56.314,56.314,0,0,0-8.176,12.17,62.689,62.689,0,0,0-5.074,14.312,73.056,73.056,0,0,0-1.7,15.637q0,.125,0,.25t0,.256A75.7,75.7,0,0,0,388.829,1002.477ZM60.693,1102.143h-.23q-.367,0-.733-.009H40.195c-.231,0-.485.007-.777.007l-.209,0H39.14c-.246,0-.491,0-.736-.009H32.195c-.231,0-.485.007-.777.007l-.209,0H31.14a30.192,30.192,0,0,1-21.816-9.319A30.161,30.161,0,0,1,0,1071.038q0-.146,0-.293,0-.1,0-.2A30.728,30.728,0,0,1,9.324,1048.5a29.943,29.943,0,0,1,21.864-9.49h.227c.452,0,.883.008,1.279.023h5.295q.6-.024,1.2-.024h.227c.452,0,.882.008,1.279.023h17.3q.755-.06,1.515-.083h.029c.4-.013.79-.019,1.166-.019h0c.374,0,.76.006,1.164.019H168.58a13.158,13.158,0,0,0,1.408-.076h.007a23.861,23.861,0,0,0,2.408-.122c11.885-2.319,20.511-11.62,20.5-23.823q0-.08,0-.159c0-6.711-2.729-10.791-7.575-15.5a24.163,24.163,0,0,0-8.244-5.771c-8.41-4.3-27.266-13.7-47.227-23.656l-.458-.228-.094-.046c-34.763-17.339-74.164-38.2-78.937-41.063-18.157-10.885-27.4-25.032-27.471-42.044h-.011c-.014-.771-.019-1.526-.019-2.311q0-.372,0-.75c0-1.158.018-2.352.053-3.571h-.055c.006-.144.014-.289.022-.432v-.069c.009-.183.018-.365.028-.546v-.9h.059c.445-7.662.264-40.91,23.992-64.748a85.943,85.943,0,0,1,19.451-14.649,94.641,94.641,0,0,1,22.775-8.959,103.482,103.482,0,0,1,24.686-2.988h124.3c.232,0,.485-.007.778-.007l.209,0h.071q1.177,0,2.342.091h6.859c.808-.059,1.637-.091,2.465-.091h.23q1.172,0,2.334.091h2.971c.808-.059,1.637-.091,2.465-.091h.23a29.965,29.965,0,0,1,21.892,9.5,30.776,30.776,0,0,1,9.335,22.082q0,.1,0,.2,0,.147,0,.293a31.914,31.914,0,0,1-30.271,31.12h-.03c-.4.013-.79.018-1.165.018s-.76-.005-1.164-.018h-5.671c-.4.013-.791.018-1.165.018s-.76-.005-1.164-.018H138.891a13.162,13.162,0,0,0-1.409.076,23.839,23.839,0,0,0-17.42,7.555,24.466,24.466,0,0,0-7.421,17.563q0,.078,0,.156,0,.142,0,.283c0,5.937,2.108,11.426,7.45,17.295a33.566,33.566,0,0,0,5.807,4.3c9.5,4.8,26.181,13.127,43.72,21.875l.458.228.094.046c34.762,17.339,74.164,38.2,78.936,41.063a73.02,73.02,0,0,1,12.88,9.643,115.185,115.185,0,0,1,11.469,10.534,36.571,36.571,0,0,1,8.366,13.073,47.425,47.425,0,0,1,2.714,15.426h.074c-.005.144-.014.289-.022.432v.069c-.009.183-.018.365-.028.546v.9H284.5c-.445,7.662-.264,40.91-23.992,64.748a85.983,85.983,0,0,1-19.451,14.649,94.662,94.662,0,0,1-22.776,8.959,103.517,103.517,0,0,1-24.685,2.987H61.465q-.385.009-.77.009Zm1561.318-.051H1506.106V786.58h116.238a226.113,226.113,0,0,1,23.816,1.262,189.909,189.909,0,0,1,22.589,3.809,165.017,165.017,0,0,1,20.874,6.338,150.966,150.966,0,0,1,19.21,8.874,158.444,158.444,0,0,1,17.366,11.1,147.216,147.216,0,0,1,15.334,13.014,144.811,144.811,0,0,1,13.3,14.931,150.387,150.387,0,0,1,11.275,16.842,147.692,147.692,0,0,1,8.978,18.452,153.136,153.136,0,0,1,6.412,19.75,167.584,167.584,0,0,1,3.847,21.042,195.528,195.528,0,0,1,0,44.68,167.58,167.58,0,0,1-3.848,21.042,153.306,153.306,0,0,1-6.412,19.75,147.778,147.778,0,0,1-8.971,18.457,150.79,150.79,0,0,1-11.275,16.842,144.7,144.7,0,0,1-13.307,14.929,147.147,147.147,0,0,1-15.334,13.017,158.45,158.45,0,0,1-17.365,11.1,151,151,0,0,1-19.21,8.872,165.185,165.185,0,0,1-20.874,6.34,189.611,189.611,0,0,1-22.538,3.8,226.5,226.5,0,0,1-23.9,1.27h-.3Zm-40.134-63.1h38.838a103.858,103.858,0,0,0,24.231-2.869,87.873,87.873,0,0,0,21.947-8.626,82.01,82.01,0,0,0,18.323-13.915,85.855,85.855,0,0,0,13.926-18.762,89.909,89.909,0,0,0,8.8-23.214,128.321,128.321,0,0,0,0-54.538,89.879,89.879,0,0,0-8.8-23.211,85.794,85.794,0,0,0-13.925-18.761,81.892,81.892,0,0,0-18.323-13.917,87.874,87.874,0,0,0-21.929-8.621,103.848,103.848,0,0,0-24.249-2.874h-38.839Zm-442.9,63.1,102.378-279a64.375,64.375,0,0,1,10.148-18.2,57.067,57.067,0,0,1,15.111-13.127,72.383,72.383,0,0,1,18.717-7.944,81.455,81.455,0,0,1,20.619-2.652h.741a84.851,84.851,0,0,1,20.575,2.533,74.17,74.17,0,0,1,18.725,7.608,53.675,53.675,0,0,1,15.11,12.9,63.618,63.618,0,0,1,10.147,18.423l102.837,279.451h-81.639l-19.845-60.848H1238.652l-20.748,60.848-.005,0Zm214.231-123.5-40.143-125.753a7.392,7.392,0,0,0-2.481-3.832,6.425,6.425,0,0,0-3.649-1.129h-.319a5.73,5.73,0,0,0-3.7,1.354,6.236,6.236,0,0,0-2.03,3.606L1258.045,978.59Zm-465.9,123.5V786.58H1023.47a125.633,125.633,0,0,1,29.858,3.6,116.375,116.375,0,0,1,27.7,10.82,112.115,112.115,0,0,1,42.17,39.89,102.3,102.3,0,0,1,11.839,27.438,121.367,121.367,0,0,1,3.947,30.637q0,.372,0,.744t0,.747a122.618,122.618,0,0,1-3.946,30.747,105.562,105.562,0,0,1-11.839,27.779,114.794,114.794,0,0,1-18.379,23.043,112,112,0,0,1-23.565,17.3,114.189,114.189,0,0,1-27.625,10.818,127.273,127.273,0,0,1-30.067,3.606H963.083v88.343Zm127.424-151.9a55.123,55.123,0,0,0,12.613-1.463,47.632,47.632,0,0,0,11.5-4.4,44.288,44.288,0,0,0,9.811-7.213,49.133,49.133,0,0,0,7.779-9.915,45.43,45.43,0,0,0,5.075-12.395,64.318,64.318,0,0,0,0-29.3,45.424,45.424,0,0,0-5.075-12.394,49.407,49.407,0,0,0-7.835-9.972,46.258,46.258,0,0,0-9.979-7.38,48.644,48.644,0,0,0-11.559-4.564,51.49,51.49,0,0,0-12.415-1.521H963.083V950.195Zm-261.815,151.9V955.859c-.013-.436-.021-.849-.021-1.267s.007-.828.021-1.266v-.069a35.208,35.208,0,0,1,70.385,1.116q0,.11,0,.22c0,.443-.008.9-.025,1.362v146.135l0,0Zm-133.053,0V821.717h.037v-.473q0-.109,0-.218a34.954,34.954,0,0,1,69.9,0q0,.109,0,.218c0,.484-.01.991-.029,1.5v279.343ZM788.09,868.957a41.119,41.119,0,0,1-15.56-3.042,44.115,44.115,0,0,1-22.436-22.426,39.53,39.53,0,0,1-3.045-15.173q0-.187,0-.375,0-.126,0-.251a39.971,39.971,0,0,1,3.046-15.357,42.783,42.783,0,0,1,9.13-13.465,41.743,41.743,0,0,1,13.306-9.3,40.62,40.62,0,0,1,31.119,0,41.725,41.725,0,0,1,13.306,9.3,42.753,42.753,0,0,1,9.132,13.465,39.954,39.954,0,0,1,3.045,15.357q0,.125,0,.251,0,.188,0,.375a39.547,39.547,0,0,1-3.046,15.174,44.121,44.121,0,0,1-22.438,22.425,41.122,41.122,0,0,1-15.518,3.042ZM719.9,600.107A104.021,104.021,0,0,1,616,496.2h0A104.022,104.022,0,0,1,719.9,392.3h78.833c-60.613-34.007-121.135-68.156-129.212-73.435C634.008,295.649,616,265.46,616,229.135a104.089,104.089,0,0,1,76.936-100.356,113.463,113.463,0,0,1-2.614-24.873h0A104.023,104.023,0,0,1,794.227,0H1013.09a104.022,104.022,0,0,1,103.9,103.9h0a104.023,104.023,0,0,1-103.9,103.9H933.53c61.255,34.549,122.837,69.325,127.651,72.044l1.166.658,1.121.734c35.518,23.215,53.527,53.4,53.527,89.729a104.093,104.093,0,0,1-77.124,100.406,105.781,105.781,0,0,1,2.8,24.822h0a104.022,104.022,0,0,1-103.905,103.9Zm0-82.58H938.768A21.349,21.349,0,0,0,960.092,496.2c0-6.759,0-9.162-17.63-21.324H719.9a21.324,21.324,0,1,0,0,42.647ZM1013.09,392.3a21.349,21.349,0,0,0,21.325-21.325c0-3.684,0-9.794-15.1-19.928-18.2-10.28-224.884-126.982-249.117-140.392q-2.608-1.443-5.1-2.845H719.9a21.349,21.349,0,0,0-21.325,21.325c0,3.76,0,10.049,16.069,20.568,12.222,7.761,158.711,89.846,248.277,139.822l1.308.729,1.251.823,1.865,1.223Zm0-267.07a21.324,21.324,0,0,0,0-42.648H794.226A21.349,21.349,0,0,0,772.9,103.9c0,7.445,0,11.452,14.968,21.325Z" transform="translate(19624.686 20571)" fill="url(#linear-gradient)"/>
    </g>
  </g>
</svg>
