<svg xmlns="http://www.w3.org/2000/svg" xmlns:xlink="http://www.w3.org/1999/xlink" width="600" height="600" viewBox="0 0 3000 3000">
  <defs>
    <linearGradient id="linear-gradient" x1="0.5" x2="0.83" y2="0.833" gradientUnits="objectBoundingBox">
      <stop offset="0" stop-color="#924bf9"/>
      <stop offset="1" stop-color="#4895ed"/>
    </linearGradient>
    <linearGradient id="linear-gradient-2" x1="-0.064" y1="-0.101" x2="0.948" y2="1.514" gradientUnits="objectBoundingBox">
      <stop offset="0" stop-color="#fafafa"/>
      <stop offset="1" stop-color="#fafafa"/>
    </linearGradient>
    <linearGradient id="linear-gradient-3" x1="0.9" y1="0.14" x2="-0.017" y2="0.983" gradientUnits="objectBoundingBox">
      <stop offset="0" stop-color="#f5f5f5"/>
      <stop offset="1" stop-color="#f5f6f6"/>
    </linearGradient>
    <linearGradient id="linear-gradient-4" x1="-0.284" y1="0.225" x2="0.31" y2="0.772" gradientUnits="objectBoundingBox">
      <stop offset="0" stop-color="#e0e0f4"/>
      <stop offset="1" stop-color="#fff"/>
    </linearGradient>
    <linearGradient id="linear-gradient-5" y1="0.099" x2="0.963" y2="0.927" gradientUnits="objectBoundingBox">
      <stop offset="0" stop-color="#fafafa"/>
      <stop offset="1" stop-color="#fff"/>
    </linearGradient>
    <linearGradient id="linear-gradient-6" x1="1" y1="0.129" x2="-0.105" y2="0.346" gradientUnits="objectBoundingBox">
      <stop offset="0" stop-color="#e2dff5"/>
      <stop offset="1" stop-color="#fafafa"/>
    </linearGradient>
    <clipPath id="clip-S_SYBOL">
      <rect width="3000" height="3000"/>
    </clipPath>
  </defs>
  <g id="S_SYBOL" data-name="S SYBOL" clip-path="url(#clip-S_SYBOL)">
    <circle id="Ellipse_8" data-name="Ellipse 8" cx="1471.5" cy="1471.5" r="1471.5" transform="translate(29 29)" stroke="rgba(0,0,0,0)" stroke-miterlimit="10" stroke-width="1" fill="url(#linear-gradient)"/>
    <g id="Group_44" data-name="Group 44" transform="translate(-14636.629 -20231.246)">
      <path id="Union_28" data-name="Union 28" d="M473.5,349.934A152.118,152.118,0,0,1,437.89,345.7a131.841,131.841,0,0,1-59.7-32.747,127.769,127.769,0,0,1-20.852-26.339,122.194,122.194,0,0,1-13.239-31.3,135.648,135.648,0,0,1-4.147-25.815v-.012c-.006-.088-.011-.177-.016-.265v-.008q-.008-.128-.015-.256l0-.029c0-.079-.009-.159-.014-.238l0-.045q-.006-.108-.012-.216l0-.069q-.005-.1-.011-.2l0-.08-.009-.176-.006-.112-.007-.146c0-.046,0-.092-.007-.137l-.006-.123c0-.051,0-.1-.007-.151l-.005-.121-.007-.158,0-.1c0-.062-.005-.125-.008-.188l0-.068c0-.071-.006-.143-.009-.214v-.039c0-.079-.006-.158-.009-.237v-.026q-.1-2.569-.1-5.143,0-.169,0-.339,0-.107,0-.213c0-.185,0-.372,0-.557a137.307,137.307,0,0,1,4.415-34.666,119.923,119.923,0,0,1,13.239-31.236A129.168,129.168,0,0,1,378.2,127.717a133.952,133.952,0,0,1,27.264-20.176,130.458,130.458,0,0,1,32.4-12.863,155.25,155.25,0,0,1,72.483,0,128.583,128.583,0,0,1,32.222,12.863,133.968,133.968,0,0,1,27.083,20.176,130.182,130.182,0,0,1,20.8,26.223A119.856,119.856,0,0,1,603.7,185.175a137.268,137.268,0,0,1,4.416,34.666c0,.185,0,.372,0,.557q0,.109,0,.218,0,.167,0,.334,0,2.444-.087,4.885v.006c0,.082-.006.164-.009.246,0,.011,0,.023,0,.035l-.008.211,0,.075q0,.092-.007.183l0,.1-.007.168c0,.036,0,.072,0,.108,0,.052,0,.1-.007.155s0,.084-.006.126l-.006.125-.008.162c0,.033,0,.065,0,.1l-.009.182,0,.082c0,.065-.007.131-.01.2,0,.025,0,.049,0,.074,0,.07-.007.14-.011.21l0,.05-.013.232,0,.036c0,.083-.01.166-.014.248,0,.005,0,.011,0,.016q-.008.132-.016.264v.005A135.72,135.72,0,0,1,603.7,255.32a122.178,122.178,0,0,1-13.249,31.3A127.7,127.7,0,0,1,569.6,312.957a130.555,130.555,0,0,1-27.266,20.057A132.04,132.04,0,0,1,510.049,345.7a149.5,149.5,0,0,1-35.289,4.231Zm-56.55-112.622a66.868,66.868,0,0,0,5.441,15.461,60.442,60.442,0,0,0,8.772,13.056,58.553,58.553,0,0,0,11.788,10.15A51.674,51.674,0,0,0,457.4,282.5a62.369,62.369,0,0,0,16.333,2.176h.848a61.755,61.755,0,0,0,16.253-2.176,50.063,50.063,0,0,0,14.267-6.524,58.664,58.664,0,0,0,11.607-10.15,61.749,61.749,0,0,0,8.711-13.05,66.72,66.72,0,0,0,5.44-15.462l.057-.266.014-.069.042-.2.013-.062.042-.2.014-.069.04-.2.017-.087.036-.179.019-.094.034-.174.018-.092.034-.176.018-.093.033-.174.018-.1.031-.17.017-.1.031-.172.018-.1.029-.164.018-.1.029-.166L531.5,234l.028-.162.018-.105.027-.163.018-.11.026-.157.018-.113.025-.156.018-.116.024-.152.018-.117.024-.153.017-.115.023-.155.017-.113.023-.155.017-.119.021-.148.017-.121.021-.149.017-.12.02-.149.016-.12.02-.15.016-.122.019-.149.015-.119.019-.151.015-.119.019-.151.014-.117.018-.153.014-.12.017-.149.014-.119.017-.154.013-.114.017-.159.012-.109.017-.162.011-.109.017-.163.011-.106.016-.166.01-.1.016-.169.009-.1.016-.174.009-.1c.005-.059.011-.117.016-.176l.008-.091.016-.186L532.4,227q.008-.1.016-.193l.006-.075q.008-.1.016-.2l.005-.069c.005-.071.011-.142.016-.214l0-.052c.006-.076.011-.152.017-.229l0-.04c.006-.08.011-.159.016-.239l0-.03q.008-.125.016-.251v-.019c.006-.089.011-.178.017-.267h0q.148-2.46.147-4.928,0-.1,0-.2,0-.035,0-.07v-.268a78.171,78.171,0,0,0-.456-8.429v-.01l-.028-.251v-.013q-.014-.122-.028-.245l0-.024-.028-.236,0-.029q-.014-.115-.028-.23l0-.036c-.009-.075-.018-.15-.028-.226l0-.037-.028-.221-.006-.049c-.009-.07-.018-.141-.028-.211l-.007-.054-.028-.207-.008-.06-.028-.2-.009-.062-.028-.2-.01-.067-.028-.194-.01-.07-.028-.191-.011-.075-.028-.187-.012-.076-.029-.184-.013-.084-.028-.177-.014-.087-.028-.174-.015-.093-.028-.167-.016-.1-.028-.165-.017-.1-.028-.165-.017-.1-.029-.163-.019-.1-.028-.157-.019-.1-.029-.157-.021-.113-.027-.147-.022-.116-.028-.145-.023-.118-.028-.144-.023-.119-.028-.141-.028-.138-.024-.121-.029-.143-.024-.119-.029-.142-.025-.119-.031-.146-.024-.115-.045-.209-.011-.05q-.028-.131-.057-.261a67.005,67.005,0,0,0-5.441-15.345,61.677,61.677,0,0,0-8.71-13.049,58.594,58.594,0,0,0-11.606-10.15,50.019,50.019,0,0,0-14.268-6.525,61.667,61.667,0,0,0-16.239-2.176h-.886a62.38,62.38,0,0,0-16.315,2.17,51.645,51.645,0,0,0-14.447,6.522,58.64,58.64,0,0,0-11.788,10.15,60.414,60.414,0,0,0-8.768,13.05,67.223,67.223,0,0,0-5.441,15.347l-.056.259-.028.13-.028.131-.027.131-.027.13-.03.145-.024.115-.032.158-.021.1-.033.163-.02.1-.03.152-.022.11-.031.158-.019.1-.03.158-.02.1-.03.164-.018.1-.03.166-.018.1-.031.172-.016.088-.031.178-.014.082-.031.182-.014.079-.03.178-.014.084-.03.183-.013.077-.03.185-.012.077-.03.189-.011.072-.03.192-.011.07-.03.2-.01.064-.029.195-.01.068-.029.2-.009.061-.029.2-.008.06c-.01.069-.019.139-.029.208l-.007.051-.029.213-.006.048-.029.218-.006.043-.028.218-.006.045-.028.224,0,.034-.027.227,0,.036-.027.232,0,.025c-.009.081-.018.161-.028.242l0,.016q-.014.124-.027.249v.011c-.009.085-.018.169-.027.254v.007c-.009.086-.018.172-.027.259h0a78.269,78.269,0,0,0-.4,7.909v.268q0,.137,0,.274,0,2.739.183,5.47v.014q.009.129.018.257v.02q.009.123.018.246l0,.038c.006.078.012.155.018.233l0,.044c.006.074.012.148.018.222l0,.06q.009.106.017.211l.005.063c.006.069.012.137.018.206l.006.07c.006.067.012.133.018.2l.007.075.018.191.008.087.017.181.009.093.018.177.01.1.018.174.01.1.018.167.011.106.018.163.012.11.018.157.013.115.018.156.014.116.018.15.015.122.018.149.015.121.019.148.016.124.019.146.016.124.019.143.017.128.02.143.017.126.02.143.018.125.021.146.018.123.021.143.019.127.021.14.02.129.022.14.02.128.022.142.02.126.023.141.021.128.023.14.021.128.024.144.021.123.025.145.021.123.025.14.022.128.026.144.022.122.027.148.022.12.028.149.022.118.028.146.023.122.029.149.023.117.033.167.019.1.035.173.019.094.035.174.019.093.038.185.017.082.053.253,0,.012.057.268ZM65.083,344.185h-.82l-.079,0h0l-.092,0H43.1c-.248,0-.52.008-.833.008H41.3l-.077,0h-6.7c-.248,0-.52.008-.833.008h-.3A32.375,32.375,0,0,1,10,334.193,32.345,32.345,0,0,1,.683,317.422l0-.012-.018-.086,0-.021-.016-.079L.637,317.2l-.015-.073-.006-.033L.6,317.026.6,316.987l-.011-.059-.009-.047-.01-.054-.01-.053-.008-.044-.012-.063-.007-.035-.014-.075,0-.021L.5,316.456l0-.019-.015-.084,0-.016-.015-.088,0-.011A32.32,32.32,0,0,1,0,310.832q0-.157,0-.314,0-.058,0-.115c0-.032,0-.063,0-.1a32.941,32.941,0,0,1,.264-4.169v-.008l.012-.094v-.01l.012-.091,0-.015.012-.086,0-.022.011-.08,0-.024.011-.077,0-.028.011-.074,0-.03.01-.068.007-.044.008-.055.007-.048.009-.055L.4,305.18l.009-.054.008-.048.009-.053.009-.054.007-.045.009-.056.008-.048.01-.057.007-.042.011-.063.006-.037.012-.071,0-.027.013-.073.005-.03.014-.075,0-.025.014-.077,0-.024.015-.082,0-.016.016-.083,0-.019.017-.085,0-.013.018-.089,0-.011c.013-.065.026-.13.04-.194v0a32.953,32.953,0,0,1,2.37-7.175l0-.008.084-.179,0-.006.043-.091h0l.032-.068.014-.029.076-.157.014-.028.026-.053.019-.04.021-.043.026-.052.017-.035.028-.055.018-.037.029-.059.014-.028.031-.061.017-.034.031-.061.013-.025.033-.064.017-.032.032-.063.01-.02.036-.069.013-.026.035-.068.01-.019.037-.07.012-.023.037-.07.007-.014.041-.077.008-.014.042-.078,0-.009.043-.079.009-.016.042-.077,0-.007.046-.083,0-.008.1-.174v0A32.936,32.936,0,0,1,10,286.662a32.1,32.1,0,0,1,23.445-10.176h.243c.484,0,.947.009,1.371.026h5.681l.15-.006h.017l.122,0h.043l.126,0h.053l.09,0h.053l.124,0h.748c.484,0,.946.009,1.371.026H62.175q.814-.065,1.635-.09h.031c.428-.013.847-.019,1.25-.019h0c.4,0,.815.007,1.248.019H180.772a14.371,14.371,0,0,0,1.51-.08h0q.445,0,.889-.015h.006l.061,0h.028l.044,0,.043,0h.026l.065,0h.006q.713-.032,1.42-.1h.006l.137-.027.01,0,.139-.028.01,0,.14-.029h.007l.141-.03.008,0,.142-.031h0l.146-.032h0l.146-.033h0a30.372,30.372,0,0,0,3.424-1l.006,0,.124-.045.018-.007.119-.044.019-.007.119-.044.019-.007.117-.044.022-.008.111-.042.029-.011.107-.042.03-.012.107-.042.03-.012.106-.043.032-.013.1-.041.038-.016.1-.041.033-.014.1-.043.033-.014.1-.044.032-.014.1-.043.038-.017.1-.042.036-.016.1-.042.04-.018.094-.042.041-.019.088-.04.053-.024.081-.037.05-.023.083-.039.045-.021.088-.042.046-.022.083-.04.054-.026.078-.038.055-.027.074-.036.059-.03.072-.036.066-.033.062-.031.076-.039.055-.028.082-.042.046-.024.088-.046.042-.022.258-.137,0,0,.252-.138.01-.006.244-.137.017-.01.111-.063.011-.007.113-.065.022-.013.1-.061.016-.01.108-.064.019-.011.106-.064.017-.01.108-.065.016-.01.109-.067.012-.008.11-.068.016-.01.107-.067.017-.011.1-.067.018-.011.107-.069.011-.007.111-.072.011-.007.113-.074.005,0,.116-.077,0,0a25,25,0,0,0,11.08-17.8v0c.006-.049.012-.1.018-.147V253.9c.006-.048.011-.1.017-.143v-.01c.005-.046.011-.094.016-.14v-.012c0-.045.01-.091.014-.136l0-.018.013-.132,0-.02c0-.044.008-.086.012-.13l0-.022c0-.043.008-.086.011-.129l0-.023c0-.042.007-.085.01-.127l0-.026c0-.041.006-.084.01-.125l0-.028c0-.041.006-.081.009-.122l0-.032c0-.041.005-.082.008-.123l0-.029c0-.04,0-.08.007-.12l0-.035c0-.039,0-.078.006-.117l0-.037c0-.039,0-.078.006-.117l0-.037c0-.039,0-.077,0-.116l0-.039c0-.038,0-.077,0-.115v-.04c0-.039,0-.079,0-.118,0-.012,0-.024,0-.036,0-.04,0-.079,0-.119,0-.012,0-.024,0-.036,0-.039,0-.08,0-.119,0-.012,0-.025,0-.037,0-.042,0-.081,0-.123,0-.011,0-.021,0-.033,0-.043,0-.087,0-.13,0-.009,0-.017,0-.026,0-.052,0-.1,0-.156q0-.032,0-.064,0-.053,0-.106a20.853,20.853,0,0,0-.652-5.378v0l-.037-.137h0l-.018-.066V244.9l-.017-.06,0-.012-.017-.058,0-.009-.016-.056,0-.017-.015-.051-.005-.017-.014-.049-.007-.022-.015-.048-.005-.017-.016-.052-.005-.017-.016-.05-.006-.018-.014-.045-.008-.026-.014-.042-.007-.023-.015-.045-.008-.023-.015-.044-.007-.022-.014-.043-.009-.027-.013-.038-.01-.028-.013-.038-.01-.029-.014-.04-.009-.026-.013-.038-.01-.03-.012-.035-.011-.032-.012-.032-.013-.035-.011-.03-.013-.036-.011-.029-.014-.038-.011-.029-.013-.034-.012-.031-.014-.037-.01-.026-.015-.039-.01-.026-.016-.041-.009-.023-.016-.042-.009-.023-.017-.043-.007-.018-.02-.049,0-.012-.021-.053-.005-.013-.021-.051,0-.011-.022-.053,0-.009-.023-.055,0-.01-.023-.054,0-.009-.024-.055,0-.011-.023-.053,0-.008-.081-.183h0a18.792,18.792,0,0,0-.963-1.848h0l-.069-.116,0,0-.035-.058h0l-.033-.054,0-.007-.035-.057v0l-.029-.047-.01-.016-.027-.044-.009-.015-.03-.048-.007-.011-.032-.051-.005-.008-.031-.049-.008-.012-.028-.044-.011-.017-.026-.04-.013-.02-.025-.039-.013-.02-.026-.039-.013-.02-.026-.039-.013-.02-.024-.037-.016-.024-.022-.033-.018-.026-.021-.032-.019-.028-.021-.031-.019-.027-.02-.03-.021-.031-.018-.026-.022-.033-.02-.028-.021-.031-.02-.028-.021-.031-.018-.025-.025-.035-.017-.024-.024-.034-.017-.025-.025-.036-.016-.022-.025-.036-.018-.025-.025-.034-.017-.024-.025-.035-.017-.023-.027-.036-.016-.022-.026-.036-.017-.023-.027-.036-.014-.02-.03-.04-.013-.018-.031-.041-.013-.017-.031-.041-.013-.017-.032-.042-.012-.016-.032-.041-.012-.016-.034-.045-.009-.011-.036-.047-.009-.011-.037-.047-.008-.01-.038-.049-.007-.008-.04-.051,0,0-.043-.054,0,0-.044-.056,0,0-.044-.055,0-.005-.042-.052-.005-.007-.042-.053,0,0-.043-.053-.005-.007-.042-.052,0-.006-.092-.113v0l-.143-.173,0,0-.1-.115h0c-.93-1.1-1.982-2.2-3.148-3.335a25.91,25.91,0,0,0-8.84-6.188c-9.019-4.605-29.237-14.691-50.642-25.366l-.491-.244-.1-.05c-37.277-18.592-79.527-40.964-84.646-44.033C34.54,146.322,24.628,131.153,24.553,112.91h-.012c-.014-.828-.02-1.637-.02-2.479,0-.266,0-.534,0-.8q0-1.414.033-2.89.01-.467.024-.938h-.059c.007-.154.015-.311.023-.464v-.074c.01-.195.019-.391.03-.586v-.968h.063c.477-8.216.283-43.869,25.727-69.429a92.162,92.162,0,0,1,20.857-15.71A101.486,101.486,0,0,1,95.641,8.961a111.064,111.064,0,0,1,26.471-3.2H255.4c.249,0,.52-.008.834-.008h.473l.284,0h.021q.921.014,1.835.079l.051,0,.025,0,.109.008H266.4c.867-.064,1.755-.1,2.643-.1h.42l.282,0h.03l.288.006h.024l.294.009h.015l.3.012h.013l.3.015h.011l.3.018h.008l.3.021h.009l.152.011h3.186c.867-.064,1.755-.1,2.643-.1h.247a32.132,32.132,0,0,1,23.475,10.188,33,33,0,0,1,9.014,15.625v0l.025.1h0l.025.1h0l.048.2h0l.024.1h0l.047.2v0l.022.1v0l.022.1v.006l.021.1v0q.066.3.127.607v0a33,33,0,0,1,.632,6.433c0,.032,0,.064,0,.1s0,.076,0,.114q0,.157,0,.314a32.372,32.372,0,0,1-.569,6.02v0l-.019.1h0c-.019.1-.039.2-.059.3v0l-.02.1,0,.012-.018.088,0,.009-.019.092v.007l-.019.09,0,.016-.018.084,0,.014-.019.086,0,.011-.02.089,0,.009-.02.089,0,.017-.019.082-.005.023-.018.077,0,.018-.02.083v.005l-.023.094v0l-.023.094,0,.007c-.032.13-.065.259-.1.388v0q-.2.78-.444,1.549l0,.012-.028.089,0,.007-.031.1h0l-.03.093v0l-.028.087,0,.011-.063.19h0l-.031.091,0,.006-.027.081-.006.018-.065.188h0l-.033.095h0l-.033.094v0c-.034.1-.068.19-.1.285v0l-.032.087,0,.01-.034.091h0l-.035.093v0l-.071.187v0a32.383,32.383,0,0,1-7.859,11.8,32.4,32.4,0,0,1-22.448,9.98h-.032c-.427.013-.847.019-1.249.019s-.816-.007-1.248-.019h-6.081c-.428.013-.848.019-1.25.019s-.815-.007-1.248-.019H148.816a13.886,13.886,0,0,0-1.391.08,25.566,25.566,0,0,0-18.679,8.1A26.249,26.249,0,0,0,121.33,95.2v0l-.031.15,0,.019-.011.057-.005.026-.01.053-.006.029-.01.05-.006.033-.008.045-.008.041-.007.036-.009.048-.006.032-.009.051-.005.03-.01.054,0,.024-.012.067v.008l-.013.076v0l-.013.078v0a26.226,26.226,0,0,0-.353,4.3c0,.032,0,.064,0,.1s0,.047,0,.071q0,.152,0,.3c0,6.368,2.261,12.253,7.989,18.547l.023.025.019.021,0,0A36.943,36.943,0,0,0,135,124.157c10.184,5.153,28.072,14.076,46.877,23.455l.491.244.1.049C219.75,166.5,262,188.869,267.118,191.938a78.329,78.329,0,0,1,13.807,10.335,123.513,123.513,0,0,1,12.3,11.3,39.207,39.207,0,0,1,8.971,14.019,50.855,50.855,0,0,1,2.91,16.541h.079c-.006.154-.015.311-.023.464v.073q-.014.294-.03.587v.968h-.062c-.478,8.216-.283,43.869-25.727,69.429a92.2,92.2,0,0,1-20.857,15.71,101.508,101.508,0,0,1-24.423,9.606,111.056,111.056,0,0,1-26.47,3.2H65.864l-.076,0h-.073l-.117,0h-.021l-.148,0h-.345Zm1674.231-.054H1615.026V5.8H1739.67a242.476,242.476,0,0,1,25.538,1.353,203.834,203.834,0,0,1,24.223,4.084,177.112,177.112,0,0,1,22.383,6.8,162.02,162.02,0,0,1,20.6,9.516,169.9,169.9,0,0,1,18.621,11.9,158.076,158.076,0,0,1,16.443,13.955,155.264,155.264,0,0,1,14.267,16.011,161.368,161.368,0,0,1,12.091,18.06,158.459,158.459,0,0,1,9.628,19.786,164.288,164.288,0,0,1,6.876,21.178,179.71,179.71,0,0,1,4.125,22.565,209.633,209.633,0,0,1,0,47.91,179.734,179.734,0,0,1-4.126,22.565,164.458,164.458,0,0,1-6.876,21.178,158.439,158.439,0,0,1-9.62,19.791,161.5,161.5,0,0,1-12.091,18.06,155.17,155.17,0,0,1-14.269,16.01,158.053,158.053,0,0,1-16.443,13.958,169.916,169.916,0,0,1-18.621,11.9,161.9,161.9,0,0,1-20.6,9.513,176.968,176.968,0,0,1-22.383,6.8,203.312,203.312,0,0,1-24.168,4.076,242.855,242.855,0,0,1-25.627,1.362v0Zm-43.036-67.668h41.646a111.373,111.373,0,0,0,25.983-3.078,94.225,94.225,0,0,0,23.535-9.248,87.917,87.917,0,0,0,19.648-14.922,92.066,92.066,0,0,0,14.933-20.119,96.4,96.4,0,0,0,9.432-24.893q.123-.565.241-1.13a137.6,137.6,0,0,0,.791-52.122l-.016-.09c-.027-.155-.055-.308-.083-.463q-.426-2.345-.933-4.678a96.392,96.392,0,0,0-9.438-24.89,91.993,91.993,0,0,0-14.932-20.117,87.81,87.81,0,0,0-19.648-14.923,94.153,94.153,0,0,0-23.515-9.245,111.256,111.256,0,0,0-26-3.082H1696.27ZM1221.35,344.129,1331.132,44.955a69,69,0,0,1,10.882-19.515,61.2,61.2,0,0,1,16.2-14.077,77.686,77.686,0,0,1,20.071-8.519A87.389,87.389,0,0,1,1400.4,0h.794a90.988,90.988,0,0,1,22.063,2.717,79.6,79.6,0,0,1,20.08,8.158,57.572,57.572,0,0,1,16.2,13.835,68.23,68.23,0,0,1,10.88,19.755l110.274,299.661h-87.543l-21.28-65.249H1328.23l-22.248,65.249-.006,0ZM1451.074,211.7,1408.029,76.85a7.924,7.924,0,0,0-2.661-4.109,6.883,6.883,0,0,0-3.913-1.211h-.343a6.14,6.14,0,0,0-3.966,1.452,6.684,6.684,0,0,0-2.176,3.867L1349.026,211.7Zm-499.6,132.432V5.8h146.01A134.768,134.768,0,0,1,1129.5,9.663a124.8,124.8,0,0,1,29.7,11.6,120.22,120.22,0,0,1,45.22,42.774,109.725,109.725,0,0,1,12.7,29.423l.066.252c.063.243.125.487.187.73l.007.028.058.23.005.022.059.234,0,.018.057.232.005.021.056.226.007.028.055.226.006.027.054.224.007.03.054.225.007.027.055.231,0,.02.055.235,0,.017.054.233,0,.021.056.241a.065.065,0,0,1,0,.008l.057.247v0a130.16,130.16,0,0,1,3.245,28.815q0,.4,0,.8c0,.187,0,.373,0,.56q0,.12,0,.241,0,2.8-.125,5.6v.01c0,.084-.007.168-.011.252,0,.006,0,.012,0,.017,0,.081-.008.163-.011.244,0,.008,0,.016,0,.025,0,.078-.007.156-.011.234,0,.012,0,.026,0,.038q-.005.108-.011.215c0,.019,0,.039,0,.057l-.011.2c0,.021,0,.042,0,.063,0,.064-.007.128-.01.191,0,.026,0,.053,0,.079l-.01.176c0,.031,0,.063-.005.094,0,.052-.006.1-.009.155s0,.076-.007.115-.006.1-.009.142-.005.082-.008.123l-.008.134c0,.044-.005.087-.008.13s-.005.081-.008.123-.006.1-.01.148l-.006.091c0,.059-.008.117-.012.176l-.005.071c0,.065-.009.13-.014.195,0,.016,0,.032,0,.049q-.008.108-.015.216c0,.007,0,.015,0,.022a131.5,131.5,0,0,1-3.888,23.583,113.179,113.179,0,0,1-12.7,29.786,123.072,123.072,0,0,1-19.708,24.709,120.107,120.107,0,0,1-25.269,18.549,122.449,122.449,0,0,1-29.623,11.6,136.478,136.478,0,0,1-32.242,3.868h-64.853v94.731Zm136.639-162.88a59.057,59.057,0,0,0,13.525-1.57,51.072,51.072,0,0,0,12.335-4.714,47.432,47.432,0,0,0,10.52-7.734,52.7,52.7,0,0,0,8.341-10.631,48.736,48.736,0,0,0,5.442-13.292l.056-.242a68.953,68.953,0,0,0,1.457-9.049q.3-3.2.3-6.417a68.968,68.968,0,0,0-1.812-15.707,48.724,48.724,0,0,0-5.442-13.29,53,53,0,0,0-8.4-10.692,49.571,49.571,0,0,0-10.7-7.914,52.162,52.162,0,0,0-12.395-4.895,55.161,55.161,0,0,0-13.312-1.63h-55.295V181.249ZM807.367,344.129V187.321c-.014-.466-.022-.909-.022-1.359s.008-.887.022-1.358v-.074a37.818,37.818,0,0,1,73.28-11.358l0,.006.037.1,0,.007.036.1,0,.01.035.1v0l.036.1.007.02.03.088.008.025.029.084.009.027.028.082.011.033.025.074.013.04.024.071.013.039.022.067.017.053.018.056.018.057.016.051.02.063.015.046.022.069.012.037.022.069.014.044.021.068.012.039.024.078.01.032.025.083.008.025.024.08.01.033.023.078.009.03.025.085.007.024.025.088.006.022.024.085.008.028.026.092,0,.014.026.094.005.019.026.1,0,.013.025.094.005.02.026.1,0,.012.025.1,0,.017.025.1,0,.014.025.1,0,.017.025.1,0,.012.025.1,0,.013.025.1,0,.006.025.1,0,.015.024.1,0,.01.024.1,0,.011.024.1,0,.01.023.1,0,.015.023.1,0,.007.023.1,0,.009.023.106v0l.023.1,0,.011.022.1v.006l.022.105,0,.008.022.1,0,.01.021.1,0,.011.022.107h0l.022.111v0l.021.11v0l.021.107,0,.008.02.108v0l.02.11v0l.02.107v.008l.019.1,0,.012.018.1v.007l.018.107v.008l.018.105,0,.011.017.1,0,.018.016.1,0,.015.016.1,0,.019.015.1,0,.017.015.1,0,.02.015.1,0,.013.015.1,0,.015.014.1,0,.018.013.093,0,.028.012.087,0,.026.012.089,0,.027.011.086,0,.031.011.083,0,.033.01.083,0,.027.011.091,0,.022.011.091,0,.031.01.082,0,.038.008.076,0,.04.008.076,0,.044.007.068.006.055.006.06.006.061.005.053.006.061.005.057.006.06.005.055.006.064,0,.05.006.073,0,.042.007.078,0,.036.008.1v.014c.006.077.012.154.018.231h0c0,.037.005.074.008.112v.006q.09,1.285.09,2.582c0,.078,0,.157,0,.235,0,.476-.009.968-.027,1.46v156.7l0,0Zm-142.676,0V43.48h.04v-.509c0-.078,0-.156,0-.235a36.651,36.651,0,0,1,3.647-15.954v0l.1-.2v0l.1-.2.01-.019.042-.084.007-.015.044-.086.01-.02.042-.084.009-.017.042-.082.016-.031.037-.072.016-.03.036-.069.022-.041.032-.06.023-.043.03-.056.026-.049.028-.052.027-.051.027-.05.028-.051.027-.05.03-.056.022-.041.033-.061.023-.042L669.3,25l.022-.039.033-.06.023-.042.034-.061.021-.037.034-.061.024-.042.034-.059.022-.038.035-.062.022-.038.04-.069.015-.026.042-.072.017-.03.042-.072.014-.023.043-.073.017-.028.045-.075.011-.018.047-.079.012-.02.047-.078.011-.019.046-.076.015-.025.048-.078.009-.015.048-.079.013-.022.049-.079.01-.016.05-.08.012-.019.052-.082.007-.011.053-.084.009-.014.053-.084.007-.011.054-.084.009-.013.056-.087,0-.006.057-.089.006-.009.059-.09,0,0,.059-.089.006-.009.059-.088,0,0,.06-.09,0-.006.061-.092h0l.064-.094h0a36.666,36.666,0,0,1,4.8-5.728,36.349,36.349,0,0,1,52.717,0,36.684,36.684,0,0,1,4.414,5.163h0l.064.092,0,0,.063.09,0,0,.063.09,0,0,.062.09,0,0,.062.09,0,0,.063.092h0l.062.092,0,.006.058.087.007.011.055.083.009.014.055.083.007.011.057.086.005.008.057.087.006.009.055.085.008.012.054.083.009.014.052.081.011.017.05.078.013.02.048.076.013.021.047.076.013.022.047.076.014.023.044.072.018.029.042.068.017.027.044.072.014.023.046.075.014.023.044.073.018.03.04.067.019.032.04.067.018.03.04.068.019.032.038.065.023.039.034.059.023.04.035.061.021.037.036.063.022.038.034.06.024.042.032.057.024.042.032.058.024.044.031.055.026.046.03.054.028.052.025.046.03.056.025.047.032.058.021.039.033.061.023.042.031.059.022.04.032.06.023.043.03.058.022.042.034.064.019.036.039.076.012.024.042.082.01.02.047.092,0,.007.05.1v0l.1.2v0a36.649,36.649,0,0,1,3.8,16.263c0,.078,0,.156,0,.235,0,.52-.011,1.063-.031,1.612V344.128ZM845.084,94.137A44.094,44.094,0,0,1,828.4,90.874a44.785,44.785,0,0,1-14.268-9.788,44.7,44.7,0,0,1-9.791-14.26,42.364,42.364,0,0,1-2.286-7.256v0l-.027-.125,0-.009-.026-.12,0-.012-.025-.117,0-.014-.023-.114,0-.02-.022-.108-.005-.025-.021-.106,0-.023-.021-.109,0-.021-.021-.109,0-.023-.02-.1-.006-.031-.018-.1-.006-.034-.018-.1-.005-.03-.018-.1-.005-.029-.018-.1,0-.028-.018-.1-.005-.03-.018-.105,0-.024-.018-.107,0-.024-.017-.1,0-.027-.017-.106,0-.024-.018-.112,0-.019-.018-.115,0-.016-.017-.112,0-.021-.019-.125v0a42.426,42.426,0,0,1-.452-6.126q0-.132,0-.265c0-.006,0-.011,0-.016q0-.061,0-.122,0-.08,0-.161c0-.036,0-.072,0-.108a42.86,42.86,0,0,1,3.266-16.467,45.864,45.864,0,0,1,9.791-14.439A44.765,44.765,0,0,1,828.4,9.009a43.558,43.558,0,0,1,33.37,0,44.746,44.746,0,0,1,14.268,9.969,45.845,45.845,0,0,1,9.793,14.439A42.838,42.838,0,0,1,889.1,49.884c0,.041,0,.081,0,.122s0,.1,0,.147,0,.077,0,.115v.122c0,.055,0,.109,0,.164a42.422,42.422,0,0,1-.935,8.806h0q-.027.126-.055.252l0,.007-.027.12,0,.008-.025.112-.007.032-.022.1-.008.035-.021.089-.011.047-.019.081-.014.058-.015.064-.018.074-.013.054-.021.088-.009.036-.023.093-.009.037a42.385,42.385,0,0,1-2.012,6.083,44.705,44.705,0,0,1-9.794,14.259,44.721,44.721,0,0,1-14.267,9.787,44.1,44.1,0,0,1-16.648,3.263Z" transform="translate(15173.629 21979.912)" stroke="rgba(0,0,0,0)" stroke-miterlimit="10" stroke-width="1" fill="url(#linear-gradient-2)"/>
      <g id="Group_39" data-name="Group 39" transform="translate(15834.176 21142.246)">
        <path id="Path_47" data-name="Path 47" d="M286.383,0c-27.376,0-50.069,8.422-69.375,25.747C202.2,39.033,191.272,55.785,178.616,75.183q-2.4,3.682-4.963,7.588l-.882,1.342-.782,1.4C118.4,181.558,30.377,338.641,22.055,351.746,10.776,368.979,4.032,368.978,0,368.978V457.53c38.952,0,71.324-19.311,96.218-57.4,10.474-16.026,126.91-224.537,152.323-270.081q2.177-3.321,4.237-6.483c22.848-35.018,24.7-35.018,33.6-35.018Z" transform="translate(457.53 245.708) rotate(90)" stroke="rgba(0,0,0,0)" stroke-miterlimit="10" stroke-width="1" opacity="0.846" fill="url(#linear-gradient-3)"/>
        <path id="Path_48" data-name="Path 48" d="M8.855,0,0,44.237,8.855,88.552a22.893,22.893,0,0,1,22.867,22.867V346.112A22.892,22.892,0,0,1,8.855,368.978V457.53A111.544,111.544,0,0,0,120.273,346.112V111.42A111.546,111.546,0,0,0,8.855,0Z" transform="translate(457.53 523.233) rotate(90)" stroke="rgba(0,0,0,0)" stroke-miterlimit="10" stroke-width="1" fill="url(#linear-gradient-4)"/>
        <path id="Path_49" data-name="Path 49" d="M22.868,425.808V111.418A22.893,22.893,0,0,0,0,88.552V0A111.546,111.546,0,0,1,111.42,111.418v314.39a22.893,22.893,0,0,0,22.867,22.867l8.855,33.878-8.855,54.674A111.545,111.545,0,0,1,22.868,425.808Z" transform="translate(537.227 111.421) rotate(90)" fill="#e2dff5" stroke="rgba(0,0,0,0)" stroke-miterlimit="10" stroke-width="1"/>
        <path id="Path_50" data-name="Path 50" d="M31.722,425.809V111.419A22.893,22.893,0,0,0,8.855,88.552L0,41.585,8.855,0A111.546,111.546,0,0,1,120.274,111.419v314.39a22.892,22.892,0,0,0,22.867,22.866L152,491.851l-8.855,45.376A111.545,111.545,0,0,1,31.722,425.809Z" transform="translate(537.227 388.95) rotate(90)" fill="url(#linear-gradient-5)"/>
        <path id="Path_51" data-name="Path 51" d="M111.419,0A111.545,111.545,0,0,0,0,111.418V346.11A111.546,111.546,0,0,0,111.419,457.53l8.855-46.7-8.855-41.852a22.893,22.893,0,0,1-22.867-22.867V111.418a22.892,22.892,0,0,1,22.866-22.866L120.274,46.9Z" transform="translate(537.227 0) rotate(90)" fill="url(#linear-gradient-6)"/>
        <path id="Path_52" data-name="Path 52" d="M286.384,0c-38.952,0-71.324,19.311-96.218,57.4l-.786,1.2-.706,1.25C183.106,69.708,52.144,301.622,36.991,329,14.87,368.978,10.821,368.978,0,368.978V457.53c29.157,0,53.015-8.878,72.94-27.143,15.538-14.245,26.994-32.239,41.53-58.507,14.38-25.986,139.522-247.612,150.545-267.133,10.867-16.2,17.419-16.2,21.369-16.2Z" transform="translate(537.227 111.421) rotate(90)" fill="#fafafa"/>
      </g>
    </g>
    <circle id="Ellipse_7" data-name="Ellipse 7" cx="1495" cy="1495" r="1495" transform="translate(0 10)" fill="none" stroke="rgba(0,0,0,0)" stroke-width="1"/>
  </g>
</svg>
