<svg xmlns="http://www.w3.org/2000/svg" xmlns:xlink="http://www.w3.org/1999/xlink" width="600" height="400" viewBox="0 0 3001 2104">
  <defs>
    <linearGradient id="linear-gradient" x1="-0.064" y1="-0.101" x2="0.948" y2="1.514" gradientUnits="objectBoundingBox">
      <stop offset="0" stop-color="#fafafa"/>
      <stop offset="1" stop-color="#fafafa"/>
    </linearGradient>
    <linearGradient id="linear-gradient-2" x1="0.9" y1="0.14" x2="-0.017" y2="0.983" gradientUnits="objectBoundingBox">
      <stop offset="0" stop-color="#f5f5f5"/>
      <stop offset="1" stop-color="#f5f6f6"/>
    </linearGradient>
    <linearGradient id="linear-gradient-3" x1="-0.284" y1="0.225" x2="0.31" y2="0.772" gradientUnits="objectBoundingBox">
      <stop offset="0" stop-color="#f5f5f5"/>
      <stop offset="1" stop-color="#fff"/>
    </linearGradient>
    <linearGradient id="linear-gradient-4" x1="-0.13" y1="0.116" x2="1.235" y2="1.298" gradientUnits="objectBoundingBox">
      <stop offset="0" stop-color="#ebebeb"/>
      <stop offset="1" stop-color="#fafafa"/>
    </linearGradient>
    <linearGradient id="linear-gradient-5" y1="0.099" x2="0.963" y2="0.927" gradientUnits="objectBoundingBox">
      <stop offset="0" stop-color="#fafafa"/>
      <stop offset="1" stop-color="#fff"/>
    </linearGradient>
    <linearGradient id="linear-gradient-6" x1="1" y1="0.129" x2="-0.105" y2="0.346" xlink:href="#linear-gradient-4"/>
    <clipPath id="clip-Artboard_4">
      <rect width="3001" height="2104"/>
    </clipPath>
  </defs>
  <g id="Artboard_4" data-name="Artboard – 4" clip-path="url(#clip-Artboard_4)">
    <g id="Group_44" data-name="Group 44" transform="translate(-14566 -20644)">
      <path id="Union_28" data-name="Union 28" d="M441.565,326.334a141.86,141.86,0,0,1-33.207-3.946,122.95,122.95,0,0,1-55.669-30.539,119.152,119.152,0,0,1-19.445-24.563A113.952,113.952,0,0,1,320.9,238.1a126.5,126.5,0,0,1-3.867-24.074v-.011c-.005-.082-.01-.165-.015-.247v-.008q-.007-.119-.014-.239l0-.027c0-.074-.009-.148-.013-.222l0-.042-.011-.2,0-.065-.01-.186,0-.075-.008-.164-.005-.1-.007-.137-.006-.128-.005-.115-.007-.141-.005-.113-.007-.147,0-.09c0-.058-.005-.117-.007-.175l0-.063c0-.066-.005-.134-.008-.2v-.036c0-.074-.006-.148-.009-.221v-.024q-.09-2.4-.09-4.8,0-.158,0-.316,0-.1,0-.2c0-.173,0-.346,0-.519a128.046,128.046,0,0,1,4.118-32.328,111.833,111.833,0,0,1,12.346-29.129A120.456,120.456,0,0,1,352.694,119.1a124.917,124.917,0,0,1,25.425-18.815,121.66,121.66,0,0,1,30.219-12,144.78,144.78,0,0,1,67.595,0,119.912,119.912,0,0,1,30.049,12A124.933,124.933,0,0,1,531.239,119.1a121.4,121.4,0,0,1,19.4,24.455,111.772,111.772,0,0,1,12.348,29.128,128.012,128.012,0,0,1,4.118,32.328c0,.173,0,.346,0,.519q0,.1,0,.2,0,.156,0,.312,0,2.279-.081,4.556v.005c0,.076-.006.153-.008.23v.032c0,.066-.005.131-.008.2l0,.07q0,.085-.007.171l0,.089-.007.157c0,.034,0,.068,0,.1s0,.1-.006.145l-.005.118-.005.117-.007.151,0,.092c0,.057-.006.113-.008.169l0,.077c0,.061-.006.122-.009.183l0,.069c0,.065-.007.131-.011.2l0,.046-.012.216,0,.034c0,.077-.009.154-.013.231v.015q-.007.123-.015.247v.005a126.566,126.566,0,0,1-3.883,24.335,113.939,113.939,0,0,1-12.355,29.186,119.094,119.094,0,0,1-19.45,24.565,121.75,121.75,0,0,1-25.427,18.7,123.134,123.134,0,0,1-30.1,11.832,139.413,139.413,0,0,1-32.909,3.946ZM388.829,221.307a62.359,62.359,0,0,0,5.074,14.418,56.365,56.365,0,0,0,8.18,12.175,54.6,54.6,0,0,0,10.993,9.465,48.19,48.19,0,0,0,13.475,6.084,58.163,58.163,0,0,0,15.232,2.03h.791a57.591,57.591,0,0,0,15.157-2.03,46.686,46.686,0,0,0,13.3-6.084,54.706,54.706,0,0,0,10.824-9.465,57.585,57.585,0,0,0,8.123-12.17,62.222,62.222,0,0,0,5.073-14.419l.053-.248.014-.064.039-.185.012-.058.039-.191.013-.065.037-.184.016-.081.033-.167.017-.088.032-.162.017-.085.032-.164.016-.087.031-.162.017-.092.029-.158.016-.089.029-.16.017-.1.027-.153.017-.1.027-.154.017-.1.026-.151.017-.1.026-.152.017-.1.024-.146.017-.105.023-.145.017-.108.022-.141.017-.109.022-.143.016-.107.022-.144.016-.106.021-.144.016-.111.02-.138.016-.113.02-.139.016-.112.019-.139.015-.111.019-.139.015-.114.018-.139.014-.111.018-.141.014-.111.017-.141.013-.109.017-.142.013-.112.016-.139.013-.111.016-.143.012-.106.016-.148.011-.1.016-.151.011-.1.016-.152.01-.1.015-.155.01-.1.015-.158.009-.092.015-.162.008-.092.015-.164.007-.085.015-.173.007-.078q.008-.09.015-.18l.006-.07q.008-.093.015-.187l.005-.065c.005-.066.01-.133.015-.2l0-.048c.005-.071.01-.142.015-.213l0-.037c.005-.075.01-.149.015-.223l0-.028q.008-.117.015-.234v-.017c.005-.083.01-.166.015-.249h0q.138-2.294.137-4.6,0-.095,0-.19,0-.033,0-.066v-.25a72.9,72.9,0,0,0-.425-7.861v-.009c-.008-.078-.017-.156-.026-.234v-.012q-.013-.114-.026-.228l0-.022c-.008-.073-.017-.147-.026-.22l0-.027q-.013-.107-.026-.215l0-.034-.026-.211,0-.035-.026-.206-.006-.045-.026-.2-.007-.05-.026-.193-.008-.056-.026-.188-.008-.058-.026-.185-.009-.063-.026-.181-.01-.066-.026-.178-.011-.07-.026-.174-.011-.071-.027-.171-.012-.078-.026-.165-.013-.081-.026-.162-.014-.087-.026-.156-.015-.09-.026-.154-.016-.091-.026-.153-.016-.091-.027-.152-.017-.1-.026-.147-.018-.1-.027-.146-.02-.106-.026-.137-.021-.108-.026-.135-.021-.11-.026-.134-.022-.111-.026-.131-.026-.129-.023-.113-.027-.133-.023-.111-.027-.132-.023-.111-.029-.136-.023-.107-.042-.195-.01-.047-.053-.244a62.488,62.488,0,0,0-5.074-14.31,57.517,57.517,0,0,0-8.122-12.169,54.642,54.642,0,0,0-10.823-9.465,46.646,46.646,0,0,0-13.306-6.085,57.508,57.508,0,0,0-15.144-2.029h-.826a58.173,58.173,0,0,0-15.215,2.024,48.163,48.163,0,0,0-13.473,6.082,54.685,54.685,0,0,0-10.993,9.465,56.338,56.338,0,0,0-8.176,12.17,62.689,62.689,0,0,0-5.074,14.312l-.053.242-.026.121-.026.122-.026.122-.025.121-.028.135-.022.108-.03.147-.019.095-.03.152-.018.091-.028.142-.02.1-.029.148-.018.094-.028.148-.018.1-.028.153-.017.089-.028.154-.016.09-.029.16-.015.082-.029.166-.013.077-.029.17-.013.074-.028.166-.013.079-.028.171-.012.072-.028.173-.012.072-.028.176-.011.067-.028.179-.01.065-.028.183-.009.06-.027.182-.009.064-.027.185-.008.056-.027.188-.008.056-.027.194-.006.047-.027.2-.006.045-.027.2-.005.04-.026.2-.005.042-.026.209,0,.032c-.009.071-.017.141-.026.212l0,.034-.025.217,0,.024c-.009.075-.017.15-.026.226l0,.015q-.013.116-.026.232v.01c-.009.079-.017.158-.025.237v.006c-.008.081-.017.161-.025.241h0a72.978,72.978,0,0,0-.375,7.375v.25q0,.128,0,.256,0,2.554.17,5.1v.013q.008.12.017.24v.019q.008.115.017.23l0,.035c.005.072.011.145.016.217l0,.041c.005.069.011.138.016.207l0,.056q.008.1.016.2l0,.059c.005.064.011.128.017.192l.006.065.017.187.006.07.016.178.008.082.016.169.009.087.016.165.009.089.017.162.01.093.017.156.011.1.017.152.011.1.017.147.012.107.017.145.013.108.017.14.014.114.017.139.014.113.017.138.015.115.018.136.015.116.018.133.016.119.018.133.016.117.019.134.017.117.02.136.017.115.02.134.018.118.02.131.018.12.02.13.019.12.021.133.019.117.021.132.019.12.022.13.02.119.023.134.019.115.023.136.02.115.023.131.021.119.024.135.02.114.025.138.02.112.026.139.02.11.026.136.022.114.027.139.021.109.031.156.018.092.032.162.018.088.033.162.018.087.036.172.016.076.05.236,0,.011.053.25ZM60.693,320.972h-.841l-.086,0H40.195c-.231,0-.485.007-.777.007h-.9l-.072,0H32.195c-.231,0-.485.007-.777.007H31.14a30.191,30.191,0,0,1-21.816-9.318,30.164,30.164,0,0,1-8.687-15.64l0-.011-.017-.08,0-.02L.6,295.83l0-.023-.014-.068-.006-.03-.012-.062-.007-.036-.011-.055-.008-.043-.01-.05-.009-.049-.008-.041L.5,295.312l-.006-.033-.013-.07,0-.019-.014-.076,0-.018-.014-.078,0-.015-.014-.082,0-.01A30.14,30.14,0,0,1,0,289.869q0-.146,0-.293,0-.054,0-.107c0-.03,0-.059,0-.089a30.719,30.719,0,0,1,.246-3.888v-.008l.011-.088v-.009l.011-.085,0-.014.011-.08,0-.021.01-.074,0-.023.01-.072,0-.026.01-.069,0-.028.009-.064.006-.041.008-.051.007-.045.008-.052.007-.044.008-.051.007-.045.008-.049.008-.051.007-.042.009-.053.007-.044.009-.053.007-.039.01-.058.006-.035.012-.066,0-.025.012-.068,0-.028.013-.07,0-.023.013-.071,0-.022.014-.076,0-.015.015-.078,0-.018.016-.08,0-.012.017-.083,0-.01.037-.181v0a30.731,30.731,0,0,1,2.21-6.691l0-.007.078-.167,0-.006.04-.085h0l.03-.063.013-.027.071-.147.013-.026.024-.049.018-.037.02-.04.024-.049.016-.032.026-.052.017-.034.027-.055.013-.026.029-.057.016-.031.029-.057.012-.023.03-.06.016-.03.03-.059.01-.019.034-.065.013-.024.033-.063.009-.018.035-.066.012-.022.035-.066.007-.013.038-.072.007-.014.039-.073,0-.009.04-.074.008-.015.039-.072,0-.007.043-.077,0-.008.091-.162v0a30.715,30.715,0,0,1,5.372-6.972,29.937,29.937,0,0,1,21.864-9.49h.227c.452,0,.883.008,1.279.024h5.3l.14-.005h.016l.114,0h.04l.118,0h.05l.084,0H38.6l.115,0h.7c.452,0,.882.008,1.279.024H57.982q.76-.061,1.524-.084h.029c.4-.012.79-.018,1.166-.018h0c.374,0,.76.006,1.164.018H168.58a13.4,13.4,0,0,0,1.408-.075h0q.415,0,.829-.014h.006l.057,0h.026l.041,0,.04,0h.024l.061,0h.006q.665-.03,1.324-.1h.006l.127-.025.009,0,.13-.026.009,0,.131-.027h.006l.132-.028.008,0,.133-.029h0l.136-.03h0l.136-.031h0a28.321,28.321,0,0,0,3.193-.935l.006,0,.116-.042.017-.006.111-.041.018-.007.111-.041.018-.007.109-.041.02-.008.1-.04.027-.011.1-.039.028-.011.1-.039.028-.011.1-.04.029-.012.094-.038.035-.014.093-.039.031-.013.095-.04.031-.013.1-.041.03-.013.093-.04.036-.015.091-.04.033-.015.089-.04.038-.017.088-.039.038-.017.082-.037.049-.023.075-.035.047-.022.078-.036.042-.02.082-.039.043-.021.077-.037.051-.024.072-.035.051-.025.069-.034.055-.028.067-.033.061-.031.058-.029.071-.036.051-.026.077-.04.043-.022.082-.043.039-.02.24-.128,0,0,.235-.129.01-.005.227-.128.016-.009.1-.059.01-.006.1-.061.021-.012.1-.057.015-.009.1-.06.018-.011.1-.059.016-.009.1-.061.015-.009.1-.063.012-.007.1-.064.015-.009.1-.063.016-.01.1-.062.017-.011.1-.064.01-.007.1-.067.01-.006.105-.069.005,0,.108-.072,0,0a23.313,23.313,0,0,0,10.333-16.6v0c.006-.045.011-.092.017-.137v0c.005-.045.011-.089.016-.134v-.009c0-.043.01-.087.015-.131v-.011c0-.042.009-.085.013-.127l0-.017c0-.041.008-.082.012-.123l0-.019c0-.041.008-.081.011-.121l0-.021c0-.04.007-.08.011-.12l0-.022c0-.039.007-.079.01-.119l0-.024c0-.039.006-.078.009-.117l0-.026c0-.038.005-.075.008-.113l0-.03c0-.038.005-.077.007-.115l0-.027q0-.056.007-.112l0-.032c0-.037,0-.073.006-.109l0-.034c0-.036,0-.073.005-.109l0-.034c0-.036,0-.072,0-.108v-.036c0-.035,0-.071,0-.107v-.037c0-.036,0-.074,0-.11v-.034c0-.037,0-.074,0-.111v-.033c0-.036,0-.074,0-.111,0-.011,0-.023,0-.034,0-.039,0-.076,0-.114,0-.01,0-.02,0-.03,0-.04,0-.081,0-.121,0-.008,0-.016,0-.024,0-.049,0-.1,0-.146,0-.02,0-.04,0-.06s0-.066,0-.1a19.446,19.446,0,0,0-.608-5.016v0l-.034-.128h0l-.017-.061v-.005l-.016-.056,0-.011-.015-.055,0-.009-.015-.052,0-.016-.014-.047,0-.016-.013-.045-.006-.021-.014-.045,0-.016-.015-.048,0-.016-.015-.047-.005-.017-.013-.042-.008-.024-.013-.04-.007-.022-.014-.042-.007-.022-.014-.041-.007-.02-.013-.04-.008-.025-.012-.036-.009-.026-.012-.035-.009-.027-.013-.037-.008-.024-.013-.036-.01-.028-.012-.033-.01-.029-.011-.03-.012-.032-.01-.028-.012-.033-.01-.027-.013-.036-.01-.027-.012-.032-.011-.029-.013-.034-.009-.024-.014-.036-.009-.024-.015-.038-.008-.021-.015-.039-.009-.022-.016-.04-.007-.016-.018-.045,0-.011-.02-.049-.005-.012-.02-.048,0-.011-.021-.05,0-.008-.022-.051,0-.009-.022-.051,0-.008-.022-.051,0-.011-.021-.049,0-.008-.076-.171h0a17.521,17.521,0,0,0-.9-1.723h0l-.065-.108,0,0-.033-.054h0l-.03-.05,0-.007-.033-.054h0l-.027-.044-.009-.015-.026-.041-.009-.014-.028-.045-.007-.011-.03-.048,0-.007-.029-.045-.007-.011-.026-.041-.01-.015-.024-.037-.012-.019-.024-.036-.012-.019-.024-.037-.012-.019-.024-.037-.012-.019-.023-.034-.015-.022-.021-.031-.017-.025-.02-.029-.018-.027-.02-.029-.017-.025-.019-.028-.02-.029-.016-.024-.021-.03-.018-.026-.02-.029-.018-.027-.02-.029-.017-.024-.023-.033-.015-.022-.023-.032-.016-.023-.024-.033-.015-.021-.024-.033-.016-.023-.023-.032-.016-.022-.024-.033-.016-.021-.025-.034-.015-.021-.025-.034-.016-.022-.025-.034-.013-.018-.028-.037-.012-.016-.029-.039-.012-.016-.029-.038-.012-.016-.03-.039-.012-.015-.029-.039-.011-.015-.032-.042-.008-.01-.034-.044-.008-.011-.034-.044-.007-.01-.036-.046-.006-.008-.037-.048,0,0-.04-.051,0,0-.041-.052v0l-.041-.051,0,0-.039-.049-.005-.006-.04-.049,0,0-.04-.049-.005-.006-.039-.048,0-.005-.086-.105h0l-.133-.161,0,0-.09-.107h0c-.867-1.03-1.848-2.054-2.936-3.11a24.163,24.163,0,0,0-8.244-5.771c-8.41-4.295-27.266-13.7-47.227-23.656l-.458-.228-.094-.047c-34.763-17.339-74.164-38.2-78.937-41.063C32.21,136.454,22.967,122.308,22.9,105.3h-.011c-.014-.772-.019-1.526-.019-2.312,0-.248,0-.5,0-.75q0-1.319.031-2.7.01-.435.023-.875h-.055c.006-.144.014-.29.022-.433v-.069c.009-.182.018-.365.028-.546v-.9h.059c.445-7.662.264-40.91,23.992-64.747a85.946,85.946,0,0,1,19.451-14.65A94.642,94.642,0,0,1,89.19,8.357a103.574,103.574,0,0,1,24.686-2.988h124.3c.232,0,.485-.007.778-.007h.441l.265,0h.019q.859.013,1.711.074l.048,0,.023,0,.1.008h6.872c.808-.059,1.637-.091,2.465-.091h.392l.263,0h.028l.268.005h.022l.274.008h.014l.279.011h.012l.28.014h.01l.282.017h.008l.282.019h.009l.141.011h2.971c.808-.059,1.637-.091,2.465-.091h.23a29.965,29.965,0,0,1,21.892,9.5,30.779,30.779,0,0,1,8.406,14.571v0l.023.091h0l.023.093h0l.045.187h0l.022.093h0l.043.187v0l.021.092v0l.02.09v.005l.02.09v0q.062.282.118.566v0a30.772,30.772,0,0,1,.59,6c0,.03,0,.06,0,.09s0,.071,0,.106q0,.147,0,.293a30.188,30.188,0,0,1-.53,5.614v0l-.018.091h0c-.018.094-.036.186-.055.279v0l-.018.089,0,.011-.017.082,0,.008-.018.086v.007l-.018.084,0,.015-.017.078,0,.013-.018.08,0,.01-.019.083,0,.009-.019.083,0,.016-.018.076,0,.021-.017.071,0,.017-.018.077v0l-.021.088v0l-.021.087,0,.007c-.03.121-.06.241-.091.362v0q-.189.727-.414,1.445l0,.011-.026.083,0,.007-.028.089h0l-.028.087v0l-.026.081,0,.01-.059.177h0l-.029.085,0,.006-.026.075-.006.017-.06.175h0l-.031.088h0l-.031.088v0c-.032.089-.063.177-.1.265v0l-.03.081,0,.01-.032.085h0l-.033.087v0l-.066.174v0a30.2,30.2,0,0,1-7.329,11.006,30.218,30.218,0,0,1-20.934,9.307h-.03c-.4.012-.79.018-1.165.018s-.76-.006-1.164-.018h-5.671c-.4.012-.791.018-1.165.018s-.76-.006-1.164-.018H138.779a12.95,12.95,0,0,0-1.3.074,23.842,23.842,0,0,0-17.42,7.556,24.479,24.479,0,0,0-6.915,12.6v0l-.028.14,0,.017L113.1,89l0,.025-.01.05-.005.027-.009.046-.006.031-.008.042-.007.038-.006.034-.008.044-.005.03-.009.047-.005.028-.009.05,0,.022-.011.063v.007l-.012.07v0l-.012.073v0a24.457,24.457,0,0,0-.329,4.014c0,.03,0,.06,0,.09s0,.044,0,.066q0,.142,0,.283c0,5.938,2.108,11.426,7.45,17.3l.021.023.018.019,0,0a34.451,34.451,0,0,0,5.766,4.255c9.5,4.805,26.179,13.126,43.716,21.873l.458.228.094.046c34.762,17.339,74.164,38.2,78.936,41.064a73.046,73.046,0,0,1,12.875,9.638,115.181,115.181,0,0,1,11.475,10.539,36.563,36.563,0,0,1,8.366,13.073,47.424,47.424,0,0,1,2.714,15.425h.074c-.005.144-.014.29-.022.433v.068q-.014.274-.028.547v.9H284.5c-.445,7.662-.264,40.91-23.992,64.747a85.985,85.985,0,0,1-19.451,14.65,94.662,94.662,0,0,1-22.776,8.959,103.567,103.567,0,0,1-24.685,2.988H61.283l-.109,0h-.019l-.138,0h-.322Zm1561.318-.05H1506.106V5.41h116.238a226.123,226.123,0,0,1,23.816,1.262,190.091,190.091,0,0,1,22.589,3.809,165.167,165.167,0,0,1,20.874,6.338,151.1,151.1,0,0,1,19.21,8.874,158.443,158.443,0,0,1,17.366,11.1,147.435,147.435,0,0,1,15.334,13.014,144.807,144.807,0,0,1,13.3,14.931,150.471,150.471,0,0,1,11.275,16.842,147.755,147.755,0,0,1,8.978,18.452,153.182,153.182,0,0,1,6.412,19.75,167.568,167.568,0,0,1,3.847,21.043,195.483,195.483,0,0,1,0,44.679,167.593,167.593,0,0,1-3.848,21.043,153.351,153.351,0,0,1-6.412,19.75,147.767,147.767,0,0,1-8.971,18.456,150.622,150.622,0,0,1-11.275,16.842,144.7,144.7,0,0,1-13.307,14.93,147.371,147.371,0,0,1-15.334,13.017,158.454,158.454,0,0,1-17.365,11.1,150.977,150.977,0,0,1-19.21,8.871,165.035,165.035,0,0,1-20.874,6.341,189.6,189.6,0,0,1-22.538,3.8,226.47,226.47,0,0,1-23.9,1.27v0Zm-40.134-63.1h38.838a103.862,103.862,0,0,0,24.231-2.87,87.872,87.872,0,0,0,21.947-8.625,81.988,81.988,0,0,0,18.323-13.916,85.856,85.856,0,0,0,13.926-18.762,89.9,89.9,0,0,0,8.8-23.214q.115-.526.224-1.054a128.321,128.321,0,0,0,.738-48.607l-.015-.083c-.026-.144-.051-.287-.078-.432q-.4-2.187-.87-4.363a89.89,89.89,0,0,0-8.8-23.211,85.788,85.788,0,0,0-13.925-18.76A81.891,81.891,0,0,0,1666.888,80a87.8,87.8,0,0,0-21.929-8.621,103.753,103.753,0,0,0-24.249-2.874h-38.839Zm-442.9,63.1,102.378-279a64.351,64.351,0,0,1,10.148-18.2A57.07,57.07,0,0,1,1266.617,10.6a72.445,72.445,0,0,1,18.717-7.944A81.5,81.5,0,0,1,1305.953,0h.741a84.85,84.85,0,0,1,20.575,2.533,74.236,74.236,0,0,1,18.725,7.608,53.689,53.689,0,0,1,15.11,12.9,63.63,63.63,0,0,1,10.147,18.423l102.837,279.451h-81.639L1372.6,260.069H1238.652L1217.9,320.917l-.005,0Zm214.231-123.5L1313.068,71.667a7.389,7.389,0,0,0-2.481-3.832,6.419,6.419,0,0,0-3.649-1.13h-.319a5.726,5.726,0,0,0-3.7,1.354,6.233,6.233,0,0,0-2.03,3.606L1258.045,197.42Zm-465.9,123.5V5.41H1023.47a125.677,125.677,0,0,1,29.858,3.6,116.376,116.376,0,0,1,27.7,10.821,112.113,112.113,0,0,1,42.17,39.889,102.323,102.323,0,0,1,11.839,27.438l.061.235c.059.226.117.454.174.681l.006.026.054.215.005.02.055.218,0,.017.054.217,0,.019.052.211.006.026.051.211.006.025.051.209.007.028.05.21.006.025.051.215,0,.019.052.22,0,.016.051.218,0,.019.052.225,0,.008.053.231v0a121.385,121.385,0,0,1,3.026,26.871q0,.372,0,.744c0,.174,0,.348,0,.522q0,.112,0,.225,0,2.612-.116,5.219v.009c0,.078-.007.157-.01.235v.016c0,.076-.007.152-.011.228v.023c0,.073-.007.146-.011.218,0,.012,0,.024,0,.035,0,.067-.007.134-.01.2l0,.053c0,.064-.007.127-.01.191l0,.058c0,.059-.006.119-.01.178,0,.025,0,.049,0,.074,0,.055-.006.109-.009.164l-.005.088c0,.049-.005.1-.008.144l-.006.107-.008.133c0,.038,0,.076-.007.114s-.005.084-.008.125-.005.081-.008.121l-.007.114q0,.069-.009.138l-.006.085-.011.164,0,.066-.013.181,0,.045q-.007.1-.014.2v.021a122.624,122.624,0,0,1-3.625,21.992,105.544,105.544,0,0,1-11.839,27.778,114.768,114.768,0,0,1-18.379,23.043,112.008,112.008,0,0,1-23.565,17.3,114.189,114.189,0,0,1-27.625,10.817,127.272,127.272,0,0,1-30.067,3.607H963.083V320.92Zm127.424-151.895a55.074,55.074,0,0,0,12.613-1.464,47.631,47.631,0,0,0,11.5-4.4,44.232,44.232,0,0,0,9.811-7.213,49.152,49.152,0,0,0,7.779-9.914,45.446,45.446,0,0,0,5.075-12.4l.052-.226a64.321,64.321,0,0,0,1.359-8.438q.279-2.985.279-5.984a64.313,64.313,0,0,0-1.69-14.648,45.435,45.435,0,0,0-5.075-12.394,49.425,49.425,0,0,0-7.835-9.971,46.227,46.227,0,0,0-9.979-7.38,48.645,48.645,0,0,0-11.559-4.565,51.442,51.442,0,0,0-12.415-1.52H963.083V169.025ZM752.917,320.92V174.688c-.013-.435-.021-.848-.021-1.267s.007-.827.021-1.266v-.069a35.267,35.267,0,0,1,68.337-10.592l0,.006.034.1,0,.006.034.095,0,.009.033.093v0l.034.1.006.019.028.082.008.023.027.079.008.025.026.076.01.031.023.069.012.037.022.066.012.037.02.062.016.05.017.052.017.053.015.047.019.059.014.043.02.065.011.035.02.065.013.041.019.063.011.036.022.072.009.03.023.077.007.023.022.075.009.031.021.073.008.028.023.079.007.023.024.082.006.02.023.079.007.026.024.086,0,.013.024.088,0,.018.024.089,0,.012.024.088.005.018.024.089,0,.012.024.09,0,.016.023.089,0,.013.023.09,0,.015.023.091,0,.012.023.092,0,.012.024.1v.006l.023.094,0,.014.022.093,0,.009.023.095,0,.01.022.095,0,.01.021.093,0,.014.022.095,0,.007.022.1,0,.009.022.1v0l.021.1,0,.011.021.1v.006l.021.1,0,.008.02.1,0,.01.02.1,0,.01.02.1h0l.021.1v0l.02.1v0l.019.1v.008l.019.1v0l.019.1v0l.018.1v.008l.017.1,0,.011.017.1v.006l.017.1v.007l.017.1,0,.01.016.094,0,.016.015.091,0,.014.015.091,0,.018.014.089,0,.016.014.089,0,.019.014.09,0,.012.014.094,0,.014.013.092,0,.017.012.087,0,.026.011.081,0,.024.011.083,0,.025.01.08,0,.029.01.078,0,.031.01.077,0,.025.01.085,0,.021.01.085,0,.029.009.077,0,.036.008.071,0,.037.008.071,0,.041.007.064.005.051.006.056.006.057.005.05.005.057.005.053.005.056,0,.051.005.06,0,.046.006.068,0,.039.006.073,0,.034.007.092v.013c.006.071.011.144.016.215h0l.007.1v.006q.084,1.2.083,2.407c0,.073,0,.147,0,.22,0,.444-.008.9-.025,1.362V320.918l0,0Zm-133.053,0V40.548h.037v-.474c0-.073,0-.146,0-.219a34.178,34.178,0,0,1,3.4-14.878v0l.093-.191v0l.093-.187.009-.018.039-.079.007-.014.041-.08.01-.019.04-.078.008-.016.039-.076.015-.029.035-.067.015-.028.033-.064.02-.038.029-.056.021-.041.028-.052.024-.046.026-.048.025-.047.025-.046L624,23.6l.025-.047.028-.052.021-.038.031-.057.021-.039.03-.055.02-.036.031-.056.022-.039.032-.057.019-.034.032-.057.022-.039.031-.055.02-.036.033-.058.02-.035.037-.064.014-.024.039-.067.016-.028.039-.067.013-.022.04-.068.016-.026.042-.07.01-.017.044-.074.011-.019.044-.073.01-.017.043-.07.014-.024.044-.073.009-.014.045-.074.012-.02.045-.073.009-.015.046-.075.011-.018.048-.077.006-.01.05-.079.008-.013.05-.078.006-.01.05-.079.008-.013.052-.081,0-.006.054-.083.005-.008.055-.084,0,0,.055-.083.005-.008.055-.082,0,0,.056-.084,0-.005.057-.085h0l.059-.088h0a34.193,34.193,0,0,1,4.48-5.342,33.9,33.9,0,0,1,49.162,0,34.206,34.206,0,0,1,4.116,4.815h0l.06.085,0,0,.059.084,0,0,.059.084,0,0,.058.084,0,0,.058.084,0,0,.059.086h0l.058.085,0,.006.054.081.007.01.052.077.008.013.051.077.007.01.053.08,0,.007.053.081.006.009.052.08.007.011.05.078.008.013.049.076.01.016.046.073.012.019.045.071.012.02.044.07.013.02.044.07.013.021.041.067.017.027.039.064.016.026.041.067.013.021.042.07.013.022.041.068.017.028.037.063.018.03.037.063.017.028.037.063.018.03.035.06.021.036.032.055.021.037.033.057.02.034.033.058.02.035.032.056.022.039.03.054.022.04.03.054.023.041.029.052.024.043.028.05.026.048.023.043.028.052.024.043.029.054.02.037.031.057.021.039.029.055.02.038.029.056.021.04.028.054.021.039.031.06.018.034.036.07.011.022.039.076.01.019.044.086,0,.007.047.093v0l.094.189v0A34.177,34.177,0,0,1,689.8,39.855c0,.073,0,.146,0,.219,0,.485-.01.991-.029,1.5V320.919ZM788.09,87.788a41.121,41.121,0,0,1-15.56-3.043,41.765,41.765,0,0,1-13.306-9.128,41.684,41.684,0,0,1-9.13-13.3,39.505,39.505,0,0,1-2.132-6.767v0l-.025-.117,0-.008-.024-.112,0-.011-.023-.11,0-.013-.022-.106,0-.018-.021-.1,0-.023-.02-.1,0-.021-.02-.1,0-.019-.02-.1,0-.021-.018-.1-.006-.029-.017-.09-.006-.032-.017-.093-.005-.028-.017-.095,0-.027-.017-.1,0-.026-.016-.095,0-.028-.017-.1,0-.022-.017-.1,0-.023-.016-.1,0-.025-.016-.1,0-.022-.017-.1,0-.017-.017-.107,0-.015-.016-.1,0-.019-.017-.116v0a39.578,39.578,0,0,1-.421-5.713q0-.123,0-.247c0-.005,0-.01,0-.015V46.77q0-.075,0-.15c0-.034,0-.067,0-.1a39.97,39.97,0,0,1,3.046-15.356,42.773,42.773,0,0,1,9.13-13.465,41.745,41.745,0,0,1,13.306-9.3,40.62,40.62,0,0,1,31.119,0,41.728,41.728,0,0,1,13.306,9.3,42.754,42.754,0,0,1,9.132,13.465,39.95,39.95,0,0,1,3.045,15.356c0,.038,0,.076,0,.113s0,.092,0,.137,0,.072,0,.108v.035q0,.04,0,.079,0,.077,0,.153a39.564,39.564,0,0,1-.872,8.212h0q-.025.117-.051.235l0,.007-.025.112,0,.007-.023.1-.007.03-.02.089-.008.033-.019.083-.01.043-.018.075-.013.054-.014.06-.017.069-.012.05-.02.082-.008.034-.021.087-.009.034a39.52,39.52,0,0,1-1.876,5.672,41.689,41.689,0,0,1-9.133,13.3,41.7,41.7,0,0,1-13.3,9.127,41.123,41.123,0,0,1-15.525,3.043Z" transform="translate(15173.629 21923.418)" stroke="rgba(0,0,0,0)" stroke-miterlimit="10" stroke-width="1" fill="url(#linear-gradient)"/>
      <g id="Group_39" data-name="Group 39">
        <path id="Path_47" data-name="Path 47" d="M267.069,0c-25.53,0-46.692,7.854-64.7,24.011-13.807,12.389-24,28.012-35.8,46.1q-2.242,3.434-4.629,7.076l-.822,1.251-.729,1.308C110.414,169.313,28.328,315.8,20.567,328.024,10.049,344.094,3.76,344.093,0,344.093v82.58c36.325,0,66.514-18.009,89.729-53.525C99.5,358.2,208.08,163.754,231.779,121.282q2.03-3.1,3.951-6.046C257.038,82.58,258.767,82.58,267.069,82.58Z" transform="translate(16216.301 21371.383) rotate(90)" stroke="rgba(0,0,0,0)" stroke-miterlimit="10" stroke-width="1" fill="url(#linear-gradient-2)"/>
        <path id="Path_48" data-name="Path 48" d="M8.258,0,0,41.254,8.258,82.58A21.349,21.349,0,0,1,29.583,103.9V322.769A21.348,21.348,0,0,1,8.258,344.093v82.58a104.021,104.021,0,0,0,103.9-103.9V103.906A104.023,104.023,0,0,0,8.258,0Z" transform="translate(16216.301 21630.191) rotate(90)" stroke="rgba(0,0,0,0)" stroke-miterlimit="10" stroke-width="1" fill="url(#linear-gradient-3)"/>
        <path id="Path_49" data-name="Path 49" d="M21.325,397.09V103.9A21.349,21.349,0,0,0,0,82.58V0A104.023,104.023,0,0,1,103.906,103.9V397.09a21.349,21.349,0,0,0,21.325,21.325l8.258,31.593L125.23,501A104.023,104.023,0,0,1,21.325,397.09Z" transform="translate(16290.623 21246.152) rotate(90)" stroke="rgba(0,0,0,0)" stroke-miterlimit="10" stroke-width="1" fill="url(#linear-gradient-4)"/>
        <path id="Path_50" data-name="Path 50" d="M29.583,397.091V103.9A21.349,21.349,0,0,0,8.258,82.58L0,38.78,8.258,0a104.023,104.023,0,0,1,103.9,103.9V397.091a21.348,21.348,0,0,0,21.325,21.324l8.258,40.264L133.487,501A104.022,104.022,0,0,1,29.583,397.091Z" transform="translate(16290.623 21504.965) rotate(90)" fill="url(#linear-gradient-5)"/>
        <path id="Path_51" data-name="Path 51" d="M103.9,0A104.022,104.022,0,0,0,0,103.9V322.768A104.023,104.023,0,0,0,103.9,426.673l8.258-43.55-8.258-39.03A21.349,21.349,0,0,1,82.58,322.768V103.9A21.348,21.348,0,0,1,103.9,82.58l8.258-38.845Z" transform="translate(16290.623 21142.246) rotate(90)" fill="url(#linear-gradient-6)"/>
        <path id="Path_52" data-name="Path 52" d="M267.07,0c-36.325,0-66.514,18.009-89.729,53.526l-.733,1.121-.658,1.166c-5.193,9.194-127.322,225.467-141.453,251-20.629,37.278-24.4,37.278-34.5,37.278v82.58c27.19,0,49.44-8.28,68.021-25.312,14.49-13.285,25.174-30.065,38.729-54.561,13.41-24.233,130.112-230.913,140.392-249.117,10.134-15.1,16.244-15.1,19.927-15.1Z" transform="translate(16290.623 21246.152) rotate(90)" fill="#fafafa"/>
      </g>
    </g>
  </g>
</svg>
